HIERARCHY
ROOT Hips
{
	OFFSET 0.000000 0.000000 0.000000 
	CHANNELS 6 Xposition Yposition Zposition Yrotation Zrotation Xrotation 
	JOINT Lumbar
	{
		OFFSET 0.000000 0.000000 0.000000 
		CHANNELS 3 Zrotation Xrotation Yrotation
		JOINT Neck
		{
			OFFSET 0.000000 0.445665 0.000000 
			CHANNELS 3 Zrotation Xrotation Yrotation
			End Site
			{
				OFFSET 0.000000 0.227535 0.000000 
			}
		}
		JOINT RightShoulder
		{
			OFFSET 0.019635 0.377685 0.194865 
			CHANNELS 3 Zrotation Xrotation Yrotation
			JOINT RightElbow
			{
				OFFSET 0.000000 -0.243375 0.000000 
				CHANNELS 2 Zrotation Yrotation
				JOINT RightWrist
				{
					OFFSET 0.000000 -0.264825 0.000000 
					CHANNELS 2 Zrotation Xrotation
					End Site
					{
						OFFSET 0.006600 -0.176220 0.000990 
					}
				}
			}
		}
		JOINT LeftShoulder
		{
			OFFSET 0.019635 0.377685 -0.194865 
			CHANNELS 3 Zrotation Xrotation Yrotation
			JOINT LeftElbow
			{
				OFFSET 0.000000 -0.243375 0.000000 
				CHANNELS 2 Zrotation Yrotation
				JOINT LeftWrist
				{
					OFFSET 0.000000 -0.264825 0.000000 
					CHANNELS 2 Zrotation Xrotation
					End Site
					{
						OFFSET 0.006600 -0.176220 -0.000990 
					}
				}
			}
		}
	}
	JOINT RightHip
	{
		OFFSET 0.052140 -0.069960 0.075570 
		CHANNELS 3 Zrotation Xrotation Yrotation
		JOINT RightKnee
		{
			OFFSET 0.000000 -0.402270 0.000000 
			CHANNELS 1 Zrotation
			JOINT RightAnkle
			{
				OFFSET 0.000000 -0.404085 0.000000 
				CHANNELS 3 Zrotation Xrotation Yrotation
				End Site
				{
					OFFSET 0.204105 -0.089430 0.008415 
				}
			}
		}
	}
	JOINT LeftHip
	{
		OFFSET 0.052140 -0.069960 -0.075570 
		CHANNELS 3 Zrotation Xrotation Yrotation
		JOINT LeftKnee
		{
			OFFSET 0.000000 -0.402270 0.000000 
			CHANNELS 1 Zrotation
			JOINT LeftAnkle
			{
				OFFSET 0.000000 -0.404085 0.000000 
				CHANNELS 3 Zrotation Xrotation Yrotation
				End Site
				{
					OFFSET 0.204105 -0.089430 -0.008415 
				}
			}
		}
	}
}
MOTION
Frames: 26
Frame Time: 0.02
0.04788 0.92056 -0.65601 335.92259 0 -5.92251 1.83644 4.04769 3.80605 -4.14854 -6.43929 -0.0867 10.14477 -26.93597 34.65933 65.7309 32.92993 30.74403 -11.21418 -2.03995 17.9579 -17.71045 9.01268 -80.05661 -4.34065 1.38538 -10.41186 8.19848 13.94309 -18.50786 6.52131 0.4464 4.08895 19.60426 2.04112 -10.17683 -17.6489 2.58755 2.39761 3.96929
0.06648 0.92224 -0.6532 335.55804 0 -5.59204 2.42738 3.62263 3.82448 -4.76104 -6.00931 -0.00136 9.95889 -27.39416 34.16638 65.96253 33.09231 31.10612 -11.1129 -0.95883 17.83541 -16.28679 8.7206 -79.93638 -4.30107 1.27979 -10.15037 7.57255 13.458 -20.49359 5.38414 0.48989 4.89839 18.72316 1.51993 -9.76534 -18.03276 2.65856 2.44127 3.94331
0.08528 0.92441 -0.65015 335.24248 0 -5.27872 3.06245 3.19367 3.84688 -5.4726 -5.4757 0.09055 9.76042 -27.93526 33.54351 66.22102 33.3656 31.45188 -10.98449 0.27894 17.61392 -14.61741 8.4091 -79.77914 -4.24992 1.13837 -9.64699 6.96634 12.87646 -22.8191 3.91705 0.48743 5.82046 17.66383 1.11152 -8.61067 -18.16429 2.99603 2.42885 3.64124
0.10391 0.92633 -0.64724 334.90348 0 -4.96478 3.67057 2.77677 3.85921 -6.1344 -4.98867 0.18166 9.58055 -28.44654 32.99668 66.4714 33.58338 31.79669 -10.87119 1.44623 17.43205 -13.06824 8.11107 -79.63868 -4.21006 1.01998 -9.21544 6.35513 12.33787 -25.02346 2.57534 0.49927 6.67576 16.68325 0.65788 -7.81167 -18.40041 3.2113 2.43881 3.45995
0.12292 0.92837 -0.64421 334.56984 0 -4.61675 4.31318 2.314 3.90588 -6.82359 -4.50271 0.26444 9.34882 -28.92881 32.37706 66.70559 33.82214 32.17814 -10.74614 2.61804 17.27244 -11.46474 7.78982 -79.49788 -4.14497 0.87261 -8.94425 5.72095 11.7989 -27.09647 1.31617 0.5369 7.59933 15.7087 0.17181 -6.95124 -18.69518 3.4215 2.4663 3.31019
0.14116 0.93027 -0.64136 334.23846 0 -4.34536 4.89106 1.94632 3.88121 -7.47474 -3.98986 0.36472 9.22123 -29.48944 31.87951 66.97908 34.04398 32.47809 -10.6392 3.81344 17.04307 -9.92825 7.51434 -79.34973 -4.12939 0.77753 -8.28175 5.1433 11.23938 -29.51544 -0.17082 0.51215 8.40462 14.68098 -0.21719 -6.03931 -18.80147 3.70824 2.44226 3.02596
0.15743 0.93167 -0.63912 333.87764 0 -4.28039 5.29524 1.84853 3.67088 -8.01686 -3.43428 0.52508 9.38255 -30.24811 31.73936 67.35954 34.18905 32.56692 -10.58806 5.0514 16.64551 -8.57392 7.36275 -79.184 -4.25597 0.83254 -6.59912 4.69751 10.64643 -32.86106 -2.38399 0.30741 8.8768 13.54555 -0.36587 -5.13541 -18.45168 4.15439 2.28965 2.42215
0.17289 0.93291 -0.63707 333.52158 0 -4.29282 5.62908 1.84606 3.38675 -8.51245 -2.85448 0.70047 9.6485 -31.08186 31.72839 67.77775 34.31374 32.5725 -10.55623 6.30363 16.18107 -7.30967 7.25983 -79.01344 -4.43225 0.94199 -4.53165 4.31232 10.03643 -36.5287 -4.78183 0.04455 9.22067 12.36421 -0.41948 -4.2087 -17.91832 4.66757 2.08655 1.69362
0.1886 0.93421 -0.63492 333.1784 0 -4.27079 5.98436 1.7959 3.12835 -9.01565 -2.2818 0.86013 9.86801 -31.87937 31.6662 68.1751 34.44986 32.60949 -10.51609 7.53852 15.74731 -6.04642 7.13963 -78.84911 -4.58413 1.02854 -2.63872 3.91256 9.43547 -40.01742 -6.97698 -0.17857 9.61121 11.20708 -0.51583 -3.31078 -17.46485 5.1428 1.9059 1.03067
0.20479 0.93556 -0.63284 332.77303 0 -4.24561 6.38634 1.76302 2.90227 -9.58067 -1.72127 1.05716 10.08471 -32.68876 31.56912 68.58841 34.58116 32.67257 -10.473 8.82596 15.30934 -4.59466 6.99766 -78.66602 -4.74345 1.10611 -0.73574 3.45804 8.82703 -43.67093 -9.68238 -0.45745 10.06058 10.0289 -0.61136 -2.30978 -17.01719 5.65832 1.7253 0.32076
0.2198 0.93676 -0.63065 332.49819 0 -4.24602 6.67294 1.7181 2.59226 -10.00318 -1.13182 1.18036 10.32944 -33.49017 31.57549 68.9779 34.71561 32.66234 -10.44103 10.00385 14.86499 -3.56352 6.91365 -78.52187 -4.89897 1.21572 1.23067 3.13246 8.22963 -47.03402 -11.36799 -0.63602 10.34825 8.88682 -0.68618 -1.52731 -16.5178 6.10294 1.53353 -0.31739
0.23186 0.93759 -0.62814 332.57781 0 -4.29074 6.66446 1.60596 2.06052 -10.05397 -0.46242 1.09166 10.64949 -34.25038 31.85006 69.28543 34.86854 32.46515 -10.43487 10.88568 14.4243 -3.64525 6.97124 -78.4822 -5.03415 1.40126 3.30882 3.14203 7.68415 -49.67446 -10.16376 -0.50084 10.2823 7.84963 -0.73859 -1.36011 -15.91495 6.33007 1.32147 -0.72585
0.24276 0.93826 -0.62551 332.78915 0 -4.35969 6.54084 1.48039 1.44858 -9.96021 0.23347 0.92895 10.98931 -34.9997 32.22213 69.56904 35.02387 32.1982 -10.43939 11.65339 13.97894 -4.15337 7.08688 -78.48294 -5.16338 1.6172 5.42954 3.2803 7.14869 -51.97744 -7.93303 -0.26682 10.04627 6.8525 -0.77198 -1.41614 -15.26887 6.48331 1.10055 -1.0564
0.25414 0.93899 -0.62292 332.94323 0 -4.42253 6.46561 1.36806 0.87833 -9.92559 0.9129 0.80289 11.30533 -35.75408 32.54112 69.86774 35.17443 31.96629 -10.43925 12.4669 13.53317 -4.48508 7.18025 -78.46804 -5.29391 1.81891 7.51068 3.36353 6.59655 -54.33306 -6.18621 -0.09246 9.84689 5.84174 -0.80691 -1.36958 -14.64711 6.67243 0.88506 -1.4222
0.26567 0.93975 -0.62038 333.08701 0 -4.46802 6.40474 1.22914 0.28248 -9.91813 1.6124 0.66451 11.68954 -36.51062 32.90219 70.1491 35.34 31.71677 -10.43897 13.30951 13.09628 -4.74672 7.25763 -78.44111 -5.43222 2.02429 9.69503 3.43435 6.09073 -57.13691 -4.36228 0.14261 9.81358 4.80947 -0.86789 -1.32664 -13.99804 6.85393 0.66164 -1.79406
0.27664 0.94042 -0.61772 333.28287 0 -4.55358 6.2873 1.1409 -0.27698 -9.81901 2.27544 0.53418 11.93255 -37.25915 33.19629 70.46146 35.47498 31.48922 -10.44125 14.06055 12.63996 -5.2541 7.38183 -78.44931 -5.55208 2.22851 11.66419 3.56076 5.49631 -58.90832 -2.4656 0.27479 9.39702 3.83273 -0.87207 -1.32949 -13.39929 7.03336 0.45355 -2.13203
0.28637 0.94097 -0.6148 333.5953 0 -4.75037 6.04399 1.19762 -0.72581 -9.51376 2.83643 0.44256 11.80178 -37.9873 33.28836 70.85603 35.52614 31.33314 -10.44808 14.61677 12.13743 -6.33884 7.6177 -78.54109 -5.62346 2.42162 13.07136 3.80886 4.609 -58.03346 -0.50548 0.1053 7.95364 2.99509 -0.71847 -1.40611 -12.94083 7.22032 0.2881 -2.40372
0.29559 0.94144 -0.61175 333.95457 0 -4.98491 5.74774 1.30498 -1.13302 -9.11929 3.35875 0.36181 11.5238 -38.70769 33.30788 71.28415 35.5463 31.20307 -10.45701 15.07859 11.61456 -7.65516 7.89886 -78.6674 -5.67573 2.61193 14.25039 4.10794 3.64006 -56.10797 1.47348 -0.17168 6.13427 2.21314 -0.51001 -1.52096 -12.53744 7.40839 0.13898 -2.64172
0.30503 0.94192 -0.60873 334.28917 0 -5.1977 5.47461 1.3876 -1.55281 -8.75833 3.89528 0.27711 11.29896 -39.4317 33.3554 71.70274 35.57992 31.06575 -10.46482 15.56436 11.0974 -8.86303 8.16155 -78.78045 -5.73624 2.80403 15.50419 4.38398 2.73961 -54.58023 3.36856 -0.40404 4.49263 1.40877 -0.33067 -1.61721 -12.1155 7.59867 -0.0161 -2.88913
0.31446 0.9425 -0.60581 334.6429 0 -5.43136 5.20117 1.47725 -2.00252 -8.42211 4.44689 0.18574 11.13299 -40.15446 33.42693 72.09633 35.61623 30.90704 -10.47372 16.12806 10.59546 -10.09942 8.41826 -78.8852 -5.79974 2.99664 16.8826 4.66519 1.71018 -53.3725 5.61191 -0.61686 2.81059 0.59321 -0.13247 -1.72637 -11.6635 7.77462 -0.17762 -3.15904
0.32382 0.94284 -0.60265 334.96587 0 -5.62945 4.91758 1.56427 -2.37856 -8.01492 4.95761 0.11167 10.80918 -40.87878 33.43051 72.55032 35.63963 30.7995 -10.4807 16.50613 10.05644 -11.32578 8.69632 -79.01419 -5.85095 3.18515 17.94565 4.94456 0.92588 -51.25933 7.12775 -0.89502 1.13246 -0.18588 0.03863 -1.81487 -11.28916 7.98205 -0.32183 -3.37482
0.3331 0.94253 -0.59889 335.19535 0 -5.72634 4.61745 1.63308 -2.56431 -7.43613 5.36351 0.08344 10.08583 -41.60228 33.25891 73.16202 35.63422 30.83147 -10.48189 16.416 9.42654 -12.46634 9.03147 -79.20798 -5.88586 3.3792 18.20137 5.21852 0.87404 -46.854 6.56718 -1.34633 -0.50059 -0.88174 0.12644 -1.83573 -11.10515 8.27269 -0.42129 -3.4519
0.34234 0.94195 -0.59487 335.39149 0 -5.78488 4.31003 1.69735 -2.67638 -6.78963 5.72921 0.07198 9.20919 -42.32814 33.02212 73.83317 35.61709 30.91354 -10.481 16.13929 8.75957 -13.58702 9.3846 -79.42377 -5.90635 3.56588 18.14593 5.48604 1.06578 -41.5878 5.2805 -1.85672 -2.10523 -1.54214 0.18424 -1.83374 -11.00009 8.59588 -0.50417 -3.47574
0.35161 0.94148 -0.59095 335.5998 0 -5.85669 4.00719 1.7627 -2.81981 -6.1727 6.11469 0.05334 8.40163 -43.0586 32.81786 74.47841 35.60569 30.97005 -10.48099 15.93415 8.10439 -14.71551 9.72312 -79.62493 -5.92536 3.74538 18.22763 5.74772 1.12169 -36.74538 4.3622 -2.32794 -3.68398 -2.21662 0.25214 -1.84175 -10.8655 8.9069 -0.59505 -3.52249
0.3608 0.94109 -0.58713 335.82068 0 -5.94723 3.6961 1.83368 -2.9708 -5.55606 6.49445 0.03516 7.58882 -43.76824 32.59803 75.12205 35.5912 31.03924 -10.48136 15.7799 7.46687 -15.85721 10.09022 -79.8462 -5.9789 3.96995 18.31928 6.04779 1.27779 -31.71519 3.28273 -2.85448 -5.43918 -2.89831 0.33609 -1.85228 -10.70405 9.20724 -0.68285 -3.57282
0.37016 0.94047 -0.58303 336.00901 0 -5.98934 3.40238 1.89155 -3.0891 -4.92589 6.87459 0.01738 6.75569 -44.51766 32.39714 75.7803 35.58114 31.09351 -10.4804 15.47853 6.78778 -16.96398 10.40171 -80.03122 -5.95574 4.09808 18.31948 6.2663 1.28799 -26.9023 2.36663 -3.27893 -6.81595 -3.55658 0.37979 -1.85231 -10.61905 9.53706 -0.77405 -3.60428
